<svg xmlns="http://www.w3.org/2000/svg" width="200" height="100" viewBox="0 0 512 512" class="undefined">
<style>
  .a{
    fill:#331d17;
  }
  .b{
    fill:#5b3227;
  }
  .c{
    fill:#bf4e2e;
  }
  .d{
    fill:#cf6446;
  }
  .e{
    fill:#d97a5f;
  }
  .f{
    fill:#71b04a;
  }
  .g{
    fill:#82cc56;
  }
  .h{
    fill:#9ce072;
  }
  .i{
    fill:#ffd640;
  }
  .j{
    fill:#fff666;
  }
  .k{
    fill:#fff0eb;
  }
  .l{
    fill:#fff;
  }
</style>
  <path d="M445.6 415.2H241V194.4h173.2l16.7 66C462.4 275 483 306.8 483 342c0 27.2-12.1 52.7-33.3 69.9l-4.1 3.4z" class="a"/>
  <path d="M62.3 411.9C41.1 394.7 29 369.2 29 342c0-35.2 20.6-67 52.1-81.6l16.7-66H256v220.9H66.4l-4.1-3.4z" class="b"/>
  <path d="M396 210h-22.8l0.3-85H396c23.4 0 42.5 19.1 42.5 42.5S419.4 210 396 210z" class="c"/>
  <path d="M396 155v16.9c0 77.2-62.8 140-140 140l-40-282L396 155z" class="d"/>
  <path d="M256 19.9v292c-77.2 0-140-62.8-140-140 0 0 15.9-152 140-152z" class="e"/>
  <path d="M483 477v35h-60l-217-40 50-130h92c74.4 0 135 60.6 135 135z" class="d"/>
  <path d="M256 342v140L89 512H29v-35c0-74.4 60.6-135 135-135h92z" class="e"/>
  <path d="M348 402h-92l-50 70 187 40h30v-35c0-41.4-33.6-75-75-75z" class="f"/>
  <path d="M164 402c-41.3 0-75 33.6-75 75v35h30l137-80v-30h-92z" class="g"/>
  <path d="M396 140v15h-85c-23.8 0-45-14.1-54.5-35H256l-30-60 30-60c77.2 0 140 62.8 140 140z" class="a"/>
  <path d="M116 140v32h30v-32c0-39.2 20.6-73.6 51.5-93.1A59.9 59.9 0 0 0 196 60c0 33.1 26.9 60 60 60V0c-77.2 0-140 62.8-140 140z" class="b"/>
  <path d="M393 477v35H256l-50-40 50-40h92c24.8 0 45 20.2 45 45z" class="g"/>
  <path d="M256 432v80H119v-35c0-24.8 20.2-45 45-45h92z" class="h"/>
  <path d="M158.2 142.5c6.1 10.5 5 23.2-1.6 32.5 6.7 9.3 7.7 22 1.6 32.5-6.1 10.5-17.6 16-29 14.9-4.7 10.4-15.2 17.7-27.3 17.7l-34.7-65 34.7-65c12.2 0 22.6 7.2 27.3 17.7 11.4-1.1 22.9 4.3 29 14.9z" class="i"/>
  <path d="M101.9 110v130c-12.2 0-22.6-7.2-27.3-17.6-11.4 1.1-22.9-4.3-29-14.8-6.1-10.5-5-23.2 1.6-32.5-6.7-9.3-7.7-22-1.6-32.5 6.1-10.5 17.6-16 29-14.8C79.2 117.2 89.7 110 101.9 110z" class="j"/>
  <path d="M101.9 137.5l-17.5 37.5 17.5 37.5c20.7 0 37.5-16.8 37.5-37.5s-16.8-37.5-37.5-37.5z" class="k"/>
  <path d="M64.4 175c0 20.7 16.8 37.5 37.5 37.5v-75c-20.7 0-37.5 16.8-37.5 37.5z" class="l"/>
  <circle cx="101.9" cy="175" r="15" class="g"/>
</svg>
